<svg width="36" height="36" viewBox="0 0 36 36" fill="none" xmlns="http://www.w3.org/2000/svg">
<rect width="36" height="36" rx="4" fill="white"/>
<path fill-rule="evenodd" clip-rule="evenodd" d="M6.79306 8.00003H29.2058C30.1943 8.00003 30.9989 8.761 30.9989 9.69494L31 23.0742C31 24.0081 30.1954 24.7691 29.2069 24.7691H21.5584V29L14.6716 29V24.7681H6.79306C5.80458 24.7681 5 24.0081 5 23.0731V9.69497C5 8.76106 5.80455 8.00003 6.79306 8.00003ZM16.0597 24.7681L16.0596 27.4989L20.1705 27.5L20.1705 24.7691L16.0597 24.7681ZM29.2059 23.4744C29.4361 23.4744 29.6302 23.2908 29.6302 23.0731V9.69601C29.6302 9.47826 29.4361 9.29467 29.2059 9.29467H17.9995L6.79312 9.2936C6.5629 9.2936 6.36881 9.4772 6.36881 9.69494V23.0731C6.36881 23.2909 6.56292 23.4744 6.79312 23.4744H29.2059Z" fill="#A7A7A7"/>
</svg>
