<svg width="36" height="36" viewBox="0 0 36 36" fill="none" xmlns="http://www.w3.org/2000/svg">
<rect width="36" height="36" rx="4" fill="white"/>
<path fill-rule="evenodd" clip-rule="evenodd" d="M24.455 30C22.7182 30 21.0539 29.3171 19.8259 28.1015C18.5989 26.8867 17.9091 25.2383 17.9091 23.5196C17.9091 21.8011 18.5999 20.1524 19.8268 18.9377C21.0548 17.722 22.7199 17.04 24.456 17.04C26.1928 17.041 27.8571 17.7239 29.0841 18.9395C30.312 20.1552 31.0009 21.8037 31 23.5231C30.9972 25.2398 30.3064 26.8864 29.0794 28.1002C27.8524 29.3149 26.1892 29.9979 24.4551 29.9997L24.455 30ZM24.455 18.1242C23.0094 18.1242 21.6232 18.6924 20.6006 19.7047C19.579 20.716 19.0042 22.0884 19.0042 23.5197C19.0042 24.9499 19.5781 26.3222 20.5996 27.3346C21.6212 28.3469 23.0074 28.916 24.4531 28.916C25.8978 28.917 27.284 28.3488 28.3066 27.3374C29.3291 26.3261 29.904 24.9537 29.9049 23.5234C29.904 22.0922 29.3301 20.7199 28.3076 19.7075C27.286 18.6952 25.8998 18.1261 24.455 18.1242Z" fill="#A7A7A7"/>
<path fill-rule="evenodd" clip-rule="evenodd" d="M23.2545 24.7077C23.5729 25.0229 24.0044 25.2 24.4547 25.2L24.4547 25.1999C24.9043 25.1994 25.3355 25.0223 25.6536 24.7074C25.9717 24.3927 26.1508 23.9658 26.1515 23.5208C26.1518 23.075 25.9731 22.6476 25.6548 22.3324C25.3367 22.0173 24.9052 21.8402 24.4549 21.84C24.0048 21.84 23.5731 22.0168 23.2548 22.3319C22.9367 22.6469 22.7576 23.0743 22.7576 23.5198C22.7576 23.9654 22.9364 24.3928 23.2545 24.7077ZM23.4554 22.5308C23.7205 22.2684 24.0799 22.1211 24.4547 22.1211C24.8292 22.1215 25.1886 22.2691 25.4535 22.5315C25.7186 22.794 25.8674 23.1498 25.8676 23.5208C25.8674 23.8917 25.7183 24.2475 25.4532 24.5097C25.1881 24.7719 24.8287 24.9192 24.4542 24.9189C24.0794 24.9189 23.72 24.7714 23.4551 24.5089C23.1903 24.2465 23.0415 23.8907 23.0415 23.5199C23.0415 23.1488 23.1905 22.793 23.4554 22.5308Z" fill="#A7A7A7"/>
<path d="M24.4547 25.2V25.45H24.6386L24.6933 25.2743L24.4547 25.2ZM23.2545 24.7077L23.0786 24.8854L23.0786 24.8854L23.2545 24.7077ZM24.4547 25.1999L24.4544 24.9499L24.2707 24.9501L24.216 25.1255L24.4547 25.1999ZM25.6536 24.7074L25.4778 24.5297L25.4777 24.5298L25.6536 24.7074ZM26.1515 23.5208L26.4015 23.5212L26.4015 23.5209L26.1515 23.5208ZM25.6548 22.3324L25.4788 22.51L25.4789 22.5101L25.6548 22.3324ZM24.4549 21.84L24.455 21.59H24.4549V21.84ZM23.2548 22.3319L23.0789 22.1543L23.0789 22.1543L23.2548 22.3319ZM24.4547 22.1211L24.455 21.8711H24.4547V22.1211ZM23.4554 22.5308L23.2795 22.3531L23.2795 22.3531L23.4554 22.5308ZM25.4535 22.5315L25.2775 22.7091L25.2776 22.7092L25.4535 22.5315ZM25.8676 23.5208L26.1176 23.521L26.1176 23.5207L25.8676 23.5208ZM25.4532 24.5097L25.629 24.6874L25.629 24.6874L25.4532 24.5097ZM24.4542 24.9189L24.4543 24.6689H24.4542V24.9189ZM23.4551 24.5089L23.2791 24.6865L23.2791 24.6865L23.4551 24.5089ZM24.4547 24.95C24.0699 24.95 23.7017 24.7987 23.4304 24.5301L23.0786 24.8854C23.444 25.2471 23.9388 25.45 24.4547 25.45V24.95ZM24.216 25.1255L24.216 25.1256L24.6933 25.2743L24.6934 25.2743L24.216 25.1255ZM25.4777 24.5298C25.2066 24.7982 24.8386 24.9495 24.4544 24.9499L24.455 25.4499C24.97 25.4493 25.4644 25.2465 25.8295 24.8851L25.4777 24.5298ZM25.9015 23.5203C25.9009 23.8984 25.7488 24.2616 25.4778 24.5297L25.8294 24.8851C26.1946 24.5239 26.4007 24.0332 26.4015 23.5212L25.9015 23.5203ZM25.4789 22.5101C25.75 22.7785 25.9017 23.142 25.9015 23.5206L26.4015 23.5209C26.4018 23.008 26.1963 22.5167 25.8307 22.1548L25.4789 22.5101ZM24.4548 22.09C24.8396 22.0902 25.2078 22.2415 25.4788 22.51L25.8308 22.1548C25.4656 21.793 24.9707 21.5902 24.455 21.59L24.4548 22.09ZM23.4306 22.5096C23.7019 22.2411 24.0702 22.09 24.4549 22.09V21.59C23.9394 21.59 23.4444 21.7925 23.0789 22.1543L23.4306 22.5096ZM23.0076 23.5198C23.0076 23.1415 23.1596 22.7779 23.4307 22.5096L23.0789 22.1543C22.7137 22.5158 22.5076 23.0071 22.5076 23.5198H23.0076ZM23.4304 24.5301C23.1595 24.2618 23.0076 23.8983 23.0076 23.5198H22.5076C22.5076 24.0325 22.7134 24.5238 23.0786 24.8854L23.4304 24.5301ZM24.4547 21.8711C24.0144 21.8711 23.5917 22.0441 23.2795 22.3531L23.6312 22.7085C23.8493 22.4926 24.1454 22.3711 24.4547 22.3711V21.8711ZM25.6294 22.3539C25.3175 22.0449 24.8949 21.8716 24.455 21.8711L24.4543 22.3711C24.7636 22.3715 25.0597 22.4933 25.2775 22.7091L25.6294 22.3539ZM26.1176 23.5207C26.1173 23.0827 25.9416 22.6631 25.6294 22.3539L25.2776 22.7092C25.4955 22.925 25.6174 23.2169 25.6176 23.521L26.1176 23.5207ZM25.629 24.6874C25.9413 24.3785 26.1173 23.9589 26.1176 23.521L25.6176 23.5207C25.6174 23.8244 25.4953 24.1164 25.2774 24.3319L25.629 24.6874ZM24.454 25.1689C24.8942 25.1692 25.3168 24.9961 25.629 24.6874L25.2774 24.3319C25.0593 24.5476 24.7633 24.6691 24.4543 24.6689L24.454 25.1689ZM23.2791 24.6865C23.5911 24.9956 24.0138 25.1689 24.4542 25.1689V24.6689C24.1449 24.6689 23.8489 24.5472 23.6311 24.3314L23.2791 24.6865ZM22.7915 23.5199C22.7915 23.9578 22.9672 24.3774 23.2791 24.6865L23.6311 24.3314C23.4133 24.1155 23.2915 23.8236 23.2915 23.5199H22.7915ZM23.2795 22.3531C22.9675 22.662 22.7915 23.0816 22.7915 23.5199H23.2915C23.2915 23.216 23.4135 22.924 23.6312 22.7085L23.2795 22.3531Z" fill="#A7A7A7"/>
<path fill-rule="evenodd" clip-rule="evenodd" d="M29.8504 6.04498C30.0701 6.03937 30.2728 6.16311 30.3646 6.36092L30.3647 6.36081C30.4546 6.55488 30.4205 6.78269 30.2794 6.94394L27.8836 9.70778V15.9497C27.8836 15.9667 27.8828 15.9834 27.8813 16H26.7855C26.784 15.9834 26.7832 15.9667 26.7832 15.9497V10.051H23.2075V15.751C23.2075 15.8406 23.1855 15.9253 23.1466 16H22.168C22.1291 15.9253 22.1071 15.8406 22.1071 15.751V10.051H10.6366V12H9.53607V9.70789L7.13457 6.94405C6.99536 6.78279 6.96317 6.55592 7.05313 6.36279C7.14214 6.16967 7.33628 6.04592 7.55029 6.04498H20.1023C20.2623 6.04498 20.4157 6.11436 20.5199 6.2353H20.519L22.6373 8.67274L24.7557 6.2353C24.8608 6.11436 25.0133 6.04498 25.1743 6.04498H29.8504ZM15.0027 28.3697H17.0027V27.2813H15.0027V28.3697ZM10.3392 8.95868L8.7492 7.1343H19.8714L21.4613 8.96149L10.3392 8.95868ZM27.0749 8.95868H23.8599L25.4489 7.1343H28.6676L27.0749 8.95868Z" fill="#A7A7A7"/>
<mask id="path-6-inside-1_707_2492" fill="white">
<rect x="5" y="14" width="8" height="15" rx="1"/>
</mask>
<rect x="5" y="14" width="8" height="15" rx="1" stroke="#A7A7A7" stroke-width="2.4" stroke-linejoin="round" mask="url(#path-6-inside-1_707_2492)"/>
</svg>
