<svg width="36" height="36" viewBox="0 0 36 36" fill="none" xmlns="http://www.w3.org/2000/svg">
<rect width="36" height="36" rx="4" fill="white"/>
<rect width="36" height="36" rx="4" fill="white"/>
<path fill-rule="evenodd" clip-rule="evenodd" d="M12.0491 6H23.9508H23.9509C25.6328 6 27 7.28626 27 8.87064V27.1294C27 28.7137 25.6329 30 23.9519 30H12.0491C10.3672 30 9 28.7137 9 27.1294L9.001 8.87064C9.001 7.28626 10.3681 6 12.0491 6ZM23.9538 28.786C24.9204 28.786 25.7086 28.0444 25.7086 27.1322V8.87064C25.7086 7.95845 24.9204 7.2169 23.9538 7.2169H12.046C11.0794 7.2169 10.2912 7.95845 10.2912 8.87064V27.1322C10.2912 28.0444 11.0794 28.786 12.046 28.786H23.9538Z" fill="#A7A7A7"/>
<rect x="11.5" y="8.5" width="13" height="16" rx="0.5" stroke="#A7A7A7" stroke-linejoin="round"/>
<rect x="14" y="12" width="8" height="1" rx="0.5" fill="#A7A7A7"/>
<rect x="14" y="15" width="8" height="1" rx="0.5" fill="#A7A7A7"/>
<rect x="14" y="18" width="8" height="1" rx="0.5" fill="#A7A7A7"/>
</svg>
