<?xml version="1.0" encoding="UTF-8"?>
<svg width="36px" height="36px" viewBox="0 0 36 36" version="1.1" xmlns="http://www.w3.org/2000/svg" xmlns:xlink="http://www.w3.org/1999/xlink">
    <!-- Generator: Sketch 59.1 (86144) - https://sketch.com -->
    <title>Icon / Menu / Social / IG</title>
    <desc>Created with Sketch.</desc>
    <g id="Icon-/-Menu-/-Social-/-IG" stroke="none" stroke-width="1" fill="none" fill-rule="evenodd">
        <rect id="Rectangle-Copy-4" fill="#FFFFFF" x="0" y="0" width="36" height="36" rx="4"></rect>
        <path d="M18.9864171,9.00080496 C20.5538598,9.0039142 20.8983462,9.016875 21.7108125,9.054 C23.173875,9.1209375 24.458625,9.47925 25.4896875,10.5103125 C26.52075,11.5419375 26.8790625,12.8266875 26.946,14.2891875 C26.989875,15.249375 27,15.5559375 27,18 C27,20.4440625 26.989875,20.750625 26.946,21.7108125 C26.8790625,23.173875 26.52075,24.458625 25.4896875,25.4896875 C24.4580625,26.52075 23.1733125,26.8790625 21.7108125,26.946 C20.750625,26.989875 20.4440625,27 18,27 C15.5559375,27 15.249375,26.989875 14.2891875,26.946 C12.826125,26.8790625 11.541375,26.52075 10.5103125,25.4896875 C9.47925,24.4580625 9.1209375,23.1733125 9.054,21.7108125 C9.016875,20.8983462 9.0039142,20.5538598 9.00080496,18.9864171 L9.00080496,17.0135829 C9.0039142,15.4461402 9.016875,15.1016538 9.054,14.2891875 C9.1209375,12.826125 9.47925,11.541375 10.5103125,10.5103125 C11.5419375,9.47925 12.8266875,9.1209375 14.2891875,9.054 C15.1016538,9.016875 15.4461402,9.0039142 17.0135829,9.00080496 Z M18.5374719,10.6218733 L17.4625281,10.6218733 C15.5472084,10.6233471 15.23646,10.6341525 14.3634375,10.674 C13.339125,10.7206875 12.3885,10.926 11.65725,11.65725 C10.926,12.3885 10.7206875,13.339125 10.674,14.3634375 C10.6341525,15.23646 10.6233471,15.5472084 10.6218733,17.4625281 L10.6218733,18.5374719 C10.6233471,20.4527916 10.6341525,20.76354 10.674,21.6365625 C10.7206875,22.660875 10.926,23.6115 11.65725,24.34275 C12.3885,25.074 13.339125,25.2793125 14.3634375,25.326 C15.23646,25.3658475 15.5472084,25.3766529 17.4625281,25.3781267 L18.5374719,25.3781267 C20.4527916,25.3766529 20.76354,25.3658475 21.6365625,25.326 C22.660875,25.2793125 23.6115,25.074 24.34275,24.34275 C25.074,23.6115 25.2793125,22.660875 25.326,21.6365625 C25.3658475,20.76354 25.3766529,20.4527916 25.3781267,18.5374719 L25.3781267,17.4625281 C25.3766529,15.5472084 25.3658475,15.23646 25.326,14.3634375 C25.2793125,13.339125 25.074,12.3885 24.34275,11.65725 C23.6115,10.926 22.660875,10.7206875 21.6365625,10.674 C20.76354,10.6341525 20.4527916,10.6233471 18.5374719,10.6218733 Z M18,13.3785 C20.552625,13.3785 22.6215,15.447375 22.6215,18 C22.6215,20.5520625 20.5520625,22.6215 18,22.6215 C15.4479375,22.6215 13.3785,20.552625 13.3785,18 C13.3785,15.4479375 15.447375,13.3785 18,13.3785 Z M18,15.0001875 C16.3434375,15.0001875 15.0001875,16.342875 15.0001875,18 C15.0001875,19.6565625 16.342875,20.9998125 18,20.9998125 C19.657125,20.9998125 20.9998125,19.657125 20.9998125,18 C20.9998125,16.3434375 19.657125,15.0001875 18,15.0001875 Z M22.8043125,12.1156875 C23.40078,12.1156875 23.8843125,12.59922 23.8843125,13.1956875 C23.8843125,13.792155 23.40078,14.2756875 22.8043125,14.2756875 C22.207845,14.2756875 21.7243125,13.792155 21.7243125,13.1956875 C21.7243125,12.59922 22.207845,12.1156875 22.8043125,12.1156875 Z" id="Combined-Shape" fill="#A7A7A7"></path>
    </g>
</svg>