<svg width="36" height="36" viewBox="0 0 36 36" fill="none" xmlns="http://www.w3.org/2000/svg">
<rect width="36" height="36" rx="4" fill="white"/>
<path fill-rule="evenodd" clip-rule="evenodd" d="M29.0072 11.256C29.0072 10.5645 28.4628 10 27.7914 10H8.20945C7.53912 10 6.99369 10.5645 6.99369 11.256V24.9621H29.0073L29.0072 11.256ZM28.0829 24.0074H7.91774V10.956H28.0819L28.0829 24.0074ZM5.46212 26.0441H30.5389C30.7938 26.0441 31.001 26.2592 31 26.5215C31 26.7859 30.7938 27 30.5379 27H5.46212C5.2072 27 5 26.786 5 26.5215C5 26.2592 5.20617 26.0441 5.46212 26.0441Z" fill="#A7A7A7"/>
<path d="M29.0072 11.256H28.9072V11.256L29.0072 11.256ZM6.99369 24.9621H6.89369V25.0621H6.99369V24.9621ZM29.0073 24.9621V25.0621H29.1073V24.9621L29.0073 24.9621ZM7.91774 24.0074H7.81774V24.1074H7.91774V24.0074ZM28.0829 24.0074V24.1074H28.1829L28.1829 24.0074L28.0829 24.0074ZM7.91774 10.956V10.856H7.81774V10.956H7.91774ZM28.0819 10.956L28.1819 10.956L28.1819 10.856H28.0819V10.956ZM31 26.5215L30.9 26.5211V26.5215H31ZM27.7914 10.1C28.4044 10.1 28.9072 10.6166 28.9072 11.256H29.1072C29.1072 10.5125 28.5212 9.9 27.7914 9.9V10.1ZM8.20945 10.1H27.7914V9.9H8.20945V10.1ZM7.09369 11.256C7.09369 10.6166 7.59744 10.1 8.20945 10.1V9.9C7.48079 9.9 6.89369 10.5125 6.89369 11.256H7.09369ZM7.09369 24.9621V11.256H6.89369V24.9621H7.09369ZM29.0073 24.8621H6.99369V25.0621H29.0073V24.8621ZM28.9072 11.256L28.9073 24.9621L29.1073 24.9621L29.1072 11.256L28.9072 11.256ZM7.91774 24.1074H28.0829V23.9074H7.91774V24.1074ZM7.81774 10.956V24.0074H8.01774V10.956H7.81774ZM28.0819 10.856H7.91774V11.056H28.0819V10.856ZM28.1829 24.0074L28.1819 10.956L27.9819 10.956L27.9829 24.0074L28.1829 24.0074ZM30.5389 25.9441H5.46212V26.1441H30.5389V25.9441ZM31.1 26.5219C31.1012 26.2072 30.8522 25.9441 30.5389 25.9441V26.1441C30.7355 26.1441 30.9008 26.3112 30.9 26.5211L31.1 26.5219ZM30.5379 27.1C30.8524 27.1 31.1 26.8378 31.1 26.5215H30.9C30.9 26.7341 30.7353 26.9 30.5379 26.9V27.1ZM5.46212 27.1H30.5379V26.9H5.46212V27.1ZM4.9 26.5215C4.9 26.8379 5.14878 27.1 5.46212 27.1V26.9C5.26561 26.9 5.1 26.734 5.1 26.5215H4.9ZM5.46212 25.9441C5.14761 25.9441 4.9 26.2074 4.9 26.5215H5.1C5.1 26.311 5.26473 26.1441 5.46212 26.1441V25.9441Z" fill="#A7A7A7"/>
</svg>
