<svg width="36" height="36" viewBox="0 0 36 36" fill="none" xmlns="http://www.w3.org/2000/svg">
<rect width="36" height="36" rx="4" fill="white"/>
<path d="M22.4 27.3132C22.4 27.8695 21.8951 28.4 21.1789 28.4H8.82109C8.10493 28.4 7.6 27.8695 7.6 27.3132V8.68678C7.6 8.13048 8.10493 7.6 8.82109 7.6H21.1789C21.8951 7.6 22.4 8.13048 22.4 8.68678V27.3132Z" stroke="#A7A7A7" stroke-width="1.2"/>
<path d="M24 27H24.4066C25.2843 27 26 26.3812 26 25.6199V10.3801C26 9.61885 25.2843 9 24.4066 9H24" stroke="#A7A7A7" stroke-width="1.2"/>
<path d="M28 26C28.8777 26 29.5934 25.5187 29.5934 24.9266V11.0734C29.5934 10.4813 28.8777 10 28 10" stroke="#A7A7A7" stroke-width="1.2"/>
</svg>
