<svg width="36" height="36" viewBox="0 0 36 36" fill="none" xmlns="http://www.w3.org/2000/svg">
<rect width="36" height="36" rx="4" fill="white"/>
<path fill-rule="evenodd" clip-rule="evenodd" d="M9.33129 8.00003C8.4056 8.00003 7.65217 8.79911 7.65217 9.77972V11.9375H8.93401V9.77969C8.93401 9.55106 9.11576 9.35828 9.33135 9.35828L19.8256 9.35941H30.3199C30.5355 9.35941 30.7172 9.55217 30.7172 9.78081V23.8268C30.7172 24.0554 30.5355 24.2482 30.3199 24.2482H14V25.6065H16.7092L16.3837 27.6406L14 27.6413V29H27.2849C27.6389 29 27.9252 28.6963 27.9252 28.3208C27.9252 27.9454 27.6389 27.6417 27.2849 27.6417H23.4838L23.1583 25.6076H30.3209C31.2466 25.6076 32 24.8085 32 23.8279L31.9989 9.77969C31.9989 8.79905 31.2455 8 30.3198 8L9.33129 8.00003ZM19.8256 27.6406H17.6836L18.0091 25.6065L19.8255 25.6076H21.8587L22.1841 27.6417L19.8256 27.6406ZM5.2 27.8V15.2H10.8V27.8H5.2ZM4 15C4 14.4477 4.44772 14 5 14H11C11.5523 14 12 14.4477 12 15V28C12 28.5523 11.5523 29 11 29H5C4.44772 29 4 28.5523 4 28V15Z" fill="#A7A7A7"/>
</svg>
