<svg width="36" height="36" viewBox="0 0 36 36" fill="none" xmlns="http://www.w3.org/2000/svg">
<rect width="36" height="36" rx="4" fill="white"/>
<path fill-rule="evenodd" clip-rule="evenodd" d="M13.4441 5C13.2613 5.20745 13.1156 5.44856 13.0056 5.68967C12.8956 5.89713 12.8585 6.13823 12.8228 6.37935H9.86051C9.45774 6.37935 9.12923 6.68915 9.12923 7.06902L9.12923 28.931C9.12923 29.3108 9.45772 29.6207 9.86051 29.6207H12.8228L12.8247 29.6334C12.8612 29.8703 12.8976 30.1066 13.0056 30.3103C13.1156 30.5514 13.2613 30.7926 13.4441 31H9.86051C8.65361 31 7.66667 30.0692 7.66667 28.931V7.06902C7.66667 5.93078 8.65361 5 9.86051 5H13.4441ZM26.8062 5.00001H17.0439C16.6055 5.00001 16.167 5.13741 15.837 5.34485C15.5442 5.51727 15.3257 5.75838 15.1429 6.03452C14.9972 6.24196 14.9229 6.48309 14.8872 6.7242C14.8501 6.82792 14.8501 6.96531 14.8501 7.06903V28.931C14.8501 29.0347 14.8501 29.1721 14.8872 29.2758C14.9244 29.5169 15.0329 29.758 15.1429 29.9655C15.3257 30.2416 15.5457 30.4828 15.837 30.6552C16.1655 30.8626 16.6055 31 17.0439 31H26.8062C28.0131 31 29 30.0692 29 28.931V7.06903C29 5.93214 28.0131 5.00001 26.8062 5.00001ZM27.5374 28.9324C27.5374 29.3122 27.2089 29.622 26.8062 29.622H17.0439C16.7883 29.622 16.5326 29.4846 16.4226 29.2772C16.3498 29.1735 16.3127 29.0698 16.3127 28.9324V7.06903C16.3127 6.93164 16.3498 6.82792 16.4226 6.7242C16.5326 6.51676 16.7883 6.37936 17.0439 6.37936H19C19 6.51285 19.035 6.61455 19.0698 6.71535L19.0728 6.7242C19.1457 6.86159 19.2556 6.96531 19.3656 7.06903C19.5113 7.17275 19.6941 7.24145 19.9141 7.24145H24.0859C24.3058 7.24145 24.4887 7.17275 24.6343 7.06903C24.8543 6.89661 25 6.6555 25 6.37936H26.8062C27.209 6.37936 27.5374 6.68917 27.5374 7.06903V28.9324Z" fill="#A7A7A7"/>
<circle cx="11" cy="8.5" r="1" fill="#A7A7A7"/>
<circle cx="11" cy="11.5" r="1" fill="#A7A7A7"/>
</svg>
