<?xml version="1.0" encoding="UTF-8"?>
<svg width="36px" height="36px" viewBox="0 0 36 36" version="1.1" xmlns="http://www.w3.org/2000/svg" xmlns:xlink="http://www.w3.org/1999/xlink">
    <!-- Generator: Sketch 54.1 (76490) - https://sketchapp.com -->
    <title>Menu - Icon - Tech - Tablet</title>
    <desc>Created with Sketch.</desc>
    <g id="Web---Main" stroke="none" stroke-width="1" fill="none" fill-rule="evenodd">
        <g id="List---Logged-user" transform="translate(-520.000000, -245.000000)">
            <g id="Dropdown---Technology" transform="translate(500.000000, 57.000000)">
                <g id="Tablet" transform="translate(20.000000, 188.000000)">
                    <g id="Icon-/-Menu-/-Tech-/-Tablet">
                        <rect id="Rectangle-Copy-5" fill="#FFFFFF" x="0" y="0" width="36" height="36" rx="4"></rect>
                        <path d="M17.2497422,26.42064 C17.2497422,26.031576 17.5865439,25.714704 18.0000781,25.714704 C18.4146071,25.714704 18.7504139,26.031576 18.7504139,26.42064 C18.7504139,26.809704 18.4136123,27.126576 18.0000781,27.126576 C17.585549,27.126576 17.2497422,26.809704 17.2497422,26.42064 Z M23.9508278,6 L23.9508517,6 C25.6328449,6 27,7.286256 27,8.87064 L27,27.12936 C27,28.713744 25.6328959,30 23.9518721,30 L12.0491483,30 C10.3671551,30 9,28.713744 9,27.12936 L9.0009964,8.87064 C9.0009964,7.286256 10.3681005,6 12.0491243,6 L23.9508278,6 Z M25.7085841,27.13224 L25.7085841,8.87064 C25.7085841,7.958448 24.9203921,7.216896 23.9538124,7.216896 L12.0459866,7.216896 C11.0794069,7.216896 10.2912149,7.958448 10.2912149,8.87064 L10.2912149,27.13224 C10.2912149,28.044432 11.0794069,28.785984 12.0459866,28.785984 L23.9538124,28.785984 C24.9203921,28.785984 25.7085841,28.044432 25.7085841,27.13224 Z" id="Combined-Shape" fill="#A7A7A7"></path>
                    </g>
                </g>
            </g>
        </g>
    </g>
</svg>