<?xml version="1.0" encoding="UTF-8"?>
<svg width="36px" height="36px" viewBox="0 0 36 36" version="1.1" xmlns="http://www.w3.org/2000/svg" xmlns:xlink="http://www.w3.org/1999/xlink">
    <!-- Generator: Sketch 59.1 (86144) - https://sketch.com -->
    <title>Icon / Menu / Tech / TV</title>
    <desc>Created with Sketch.</desc>
    <g id="Icon-/-Menu-/-Tech-/-TV" stroke="none" stroke-width="1" fill="none" fill-rule="evenodd">
        <rect id="Rectangle-Copy-10" fill="#FFFFFF" fill-rule="nonzero" x="0" y="0" width="36" height="36" rx="4"></rect>
        <path d="M26.60981,27.7063668 L7.3240441,27.7052995 L7.67159164,25.768074 L6.79305763,25.768074 C5.80457936,25.768074 5,25.0081355 5,24.0731314 L5,10.6949683 C5,9.76105712 5.80455047,9 6.79305763,9 L29.205814,9 C30.1942923,9 30.9988716,9.76100411 30.9988716,10.6949426 L31,24.0741987 C31,25.0081098 30.1954495,25.7691412 29.2069424,25.7691412 L28.5583542,25.7691412 L28.9059018,27.7063668 L27.5180391,27.7063668 L26.60981,27.7063668 L27.5180391,27.7063668 L27.1705039,25.7691415 L18.9994222,25.7691415 L9.05967304,25.768074 L8.71212549,27.7052995 L18.9994511,27.7052995 L26.60981,27.7063668 Z M29.6302045,24.073104 L29.6302045,10.6960082 C29.6302045,10.4782568 29.4361025,10.2946715 29.2059024,10.2946715 L17.9995089,10.2946715 L6.7931154,10.2936042 C6.56290379,10.2936042 6.36881332,10.4772005 6.36881332,10.6949409 L6.36881332,24.073104 C6.36881332,24.2908554 6.56291534,24.4744407 6.7931154,24.4744407 L29.2059024,24.4744407 C29.436114,24.4744407 29.6302045,24.2908445 29.6302045,24.073104 Z" id="Combined-Shape" fill="#A7A7A7"></path>
    </g>
</svg>