<svg width="36" height="36" viewBox="0 0 36 36" fill="none" xmlns="http://www.w3.org/2000/svg">
<rect width="36" height="36" rx="4" fill="white"/>
<path fill-rule="evenodd" clip-rule="evenodd" d="M22.6086 30.1283L22.6344 29.897C22.7515 28.8374 22.9692 26.8864 24.0625 26.2567C24.9217 25.75 25.5 24.8394 25.5 23.7991V13.1991C25.5 12.1599 24.9241 11.2493 24.0648 10.7426C22.9704 10.1153 22.7526 8.16204 22.6356 7.10236L22.6086 6.86991C22.46 5.5734 19.6658 5.45944 18 5.5091C16.3342 5.45945 13.54 5.57341 13.3914 6.87104L13.3656 7.10349C13.2485 8.16192 13.0308 10.1106 11.9398 10.7403C11.0794 11.2469 10.5012 12.1575 10.5012 13.199L10.5 23.8001C10.5 24.8416 11.0783 25.7534 11.941 26.26C13.0308 26.8908 13.2486 28.8384 13.3656 29.8968L13.3914 30.1293C13.5412 31.4269 16.3342 31.5397 18 31.4912C19.6657 31.5386 22.46 31.4246 22.6086 30.1281L22.6086 30.1283ZM14.4732 7.01671C14.7354 6.72897 16.3871 6.51344 17.9838 6.56085C17.9897 6.56085 17.9955 6.55972 18.0025 6.55972C18.0084 6.55972 18.0131 6.56085 18.0189 6.56085C19.6156 6.51233 21.2674 6.72898 21.5296 7.01671L21.5518 7.21305C21.6478 8.07852 21.7848 9.31295 22.2963 10.3184L13.7066 10.3184C14.2181 9.31408 14.3551 8.07964 14.4511 7.21536L14.4732 7.01671ZM11.5923 23.8004L11.5923 13.1993C11.5923 12.5719 11.9225 12.0167 12.4246 11.6873C12.4316 11.6839 12.4387 11.6794 12.4457 11.6748C12.7454 11.483 13.1036 11.3702 13.4899 11.3702L22.5115 11.3702C22.8978 11.3702 23.2571 11.483 23.5568 11.676C23.5627 11.6794 23.5685 11.6839 23.5755 11.6873C24.0777 12.0167 24.4078 12.5708 24.4078 13.1993V23.8004C24.4078 24.4289 24.0777 24.9829 23.5755 25.3124C23.5685 25.3158 23.5627 25.3203 23.5556 25.3237C23.256 25.5155 22.8966 25.6284 22.5103 25.6284H13.4887C13.1036 25.6284 12.7442 25.5155 12.4445 25.3237C12.4375 25.3192 12.4305 25.3147 12.4235 25.3113C11.9224 24.9818 11.5923 24.4278 11.5923 23.8004L11.5923 23.8004ZM14.4732 29.9815L14.4509 29.7841C14.3549 28.9186 14.218 27.6842 13.7064 26.6811L18.0001 26.6799H22.2938C21.7823 27.6842 21.6441 28.9198 21.5493 29.7852L21.5271 29.9816C21.2648 30.2693 19.6131 30.4848 18.0164 30.4374C18.0106 30.4374 18.0047 30.4386 17.9989 30.4386C17.993 30.4386 17.9883 30.4374 17.9813 30.4374C16.3858 30.4848 14.7353 30.2693 14.473 29.9816L14.4732 29.9815Z" fill="#A7A7A7"/>
<path d="M22.6086 30.1283L22.5587 30.1293L22.6583 30.1338L22.6086 30.1283ZM22.6344 29.897L22.6841 29.9025L22.6841 29.9024L22.6344 29.897ZM24.0625 26.2567L24.0875 26.3L24.0879 26.2997L24.0625 26.2567ZM24.0648 10.7426L24.0902 10.6996L24.0897 10.6993L24.0648 10.7426ZM22.6356 7.10236L22.6853 7.09687L22.6852 7.09661L22.6356 7.10236ZM22.6086 6.86991L22.559 6.87561L22.559 6.87567L22.6086 6.86991ZM18 5.5091L17.9985 5.55916L18.0015 5.55907L18 5.5091ZM13.3914 6.87104L13.3417 6.86535L13.3417 6.86553L13.3914 6.87104ZM13.3656 7.10349L13.3159 7.09798L13.3159 7.09799L13.3656 7.10349ZM11.9398 10.7403L11.9148 10.697L11.9145 10.6972L11.9398 10.7403ZM10.5012 13.199L10.5512 13.1991V13.199H10.5012ZM10.5 23.8001L10.45 23.8001V23.8001H10.5ZM11.941 26.26L11.9157 26.3031L11.916 26.3033L11.941 26.26ZM13.3656 29.8968L13.3159 29.9023L13.3159 29.9023L13.3656 29.8968ZM13.3914 30.1293L13.3417 30.1348L13.3417 30.135L13.3914 30.1293ZM18 31.4912L18.0014 31.4411L17.9985 31.4412L18 31.4912ZM22.6086 30.1281L22.6586 30.1271L22.559 30.1224L22.6086 30.1281ZM14.4732 7.01671L14.4362 6.98303L14.4253 6.99503L14.4235 7.01117L14.4732 7.01671ZM17.9838 6.56085L17.9823 6.61085H17.9838V6.56085ZM18.0189 6.56085V6.61087L18.0205 6.61082L18.0189 6.56085ZM21.5296 7.01671L21.5793 7.01108L21.5774 6.99499L21.5665 6.98303L21.5296 7.01671ZM21.5518 7.21305L21.6015 7.20753L21.6015 7.20742L21.5518 7.21305ZM22.2963 10.3184V10.3684H22.3779L22.3409 10.2957L22.2963 10.3184ZM13.7066 10.3184L13.662 10.2957L13.625 10.3684H13.7066V10.3184ZM14.4511 7.21536L14.4014 7.20982L14.4014 7.20984L14.4511 7.21536ZM11.5923 23.8004L11.5476 23.8227L11.6423 23.8004H11.5923ZM12.4246 11.6873L12.4027 11.6418L12.3972 11.6455L12.4246 11.6873ZM12.4457 11.6748L12.4187 11.6327L12.4187 11.6328L12.4457 11.6748ZM23.5568 11.676L23.5297 11.7181L23.5318 11.7193L23.5568 11.676ZM23.5755 11.6873L23.6032 11.6451L23.5972 11.6422L23.5755 11.6873ZM23.5755 25.3124L23.5974 25.3579L23.603 25.3542L23.5755 25.3124ZM23.5556 25.3237L23.5338 25.2783L23.5287 25.2816L23.5556 25.3237ZM12.4445 25.3237L12.4175 25.3658L12.4176 25.3658L12.4445 25.3237ZM12.4235 25.3113L12.3957 25.3534L12.4017 25.3563L12.4235 25.3113ZM11.5923 23.8004L11.6371 23.778L11.5423 23.8004H11.5923ZM14.4732 29.9815L14.4931 30.0274L14.527 30.0127L14.5229 29.9759L14.4732 29.9815ZM14.4509 29.7841L14.4012 29.7896L14.4012 29.7897L14.4509 29.7841ZM13.7064 26.6811L13.7064 26.6311L13.6248 26.6311L13.6619 26.7038L13.7064 26.6811ZM18.0001 26.6799V26.6299H18.0001L18.0001 26.6799ZM22.2938 26.6799L22.3384 26.7026L22.3754 26.6299H22.2938V26.6799ZM21.5493 29.7852L21.599 29.7909L21.599 29.7907L21.5493 29.7852ZM21.5271 29.9816L21.564 30.0153L21.5749 30.0033L21.5767 29.9872L21.5271 29.9816ZM18.0164 30.4374L18.0179 30.3874H18.0164V30.4374ZM17.9813 30.4374V30.3874L17.9798 30.3875L17.9813 30.4374ZM14.473 29.9816L14.4531 29.9357L14.389 29.9636L14.4361 30.0153L14.473 29.9816ZM22.6583 30.1338L22.6841 29.9025L22.5847 29.8914L22.5589 30.1227L22.6583 30.1338ZM22.6841 29.9024C22.7427 29.3722 22.826 28.6238 23.0303 27.9297C23.2352 27.2338 23.5582 26.6048 24.0875 26.3L24.0376 26.2133C23.4735 26.5382 23.141 27.1996 22.9344 27.9015C22.7272 28.6053 22.6432 29.3622 22.5847 29.8915L22.6841 29.9024ZM24.0879 26.2997C24.961 25.7849 25.55 24.8587 25.55 23.7991H25.45C25.45 24.8202 24.8824 25.7151 24.0371 26.2136L24.0879 26.2997ZM25.55 23.7991V13.1991H25.45V23.7991H25.55ZM25.55 13.1991C25.55 12.1407 24.9634 11.2144 24.0902 10.6996L24.0394 10.7857C24.8847 11.2841 25.45 12.179 25.45 13.1991H25.55ZM24.0897 10.6993C23.56 10.3956 23.2366 9.76673 23.0316 9.07049C22.8272 8.37616 22.7438 7.62721 22.6853 7.09687L22.5859 7.10785C22.6443 7.63719 22.7284 8.39468 22.9357 9.09873C23.1424 9.80087 23.4752 10.4623 24.04 10.786L24.0897 10.6993ZM22.6852 7.09661L22.6583 6.86416L22.559 6.87567L22.5859 7.10811L22.6852 7.09661ZM22.6583 6.86422C22.6188 6.52003 22.4035 6.25815 22.0865 6.06088C21.7703 5.86408 21.3483 5.72834 20.883 5.63565C19.952 5.45018 18.8324 5.43426 17.9985 5.45912L18.0015 5.55907C18.8333 5.53428 19.9438 5.55051 20.8635 5.73373C21.3236 5.82538 21.7321 5.95813 22.0337 6.14579C22.3345 6.33298 22.5241 6.57154 22.559 6.87561L22.6583 6.86422ZM18.0015 5.45912C17.1676 5.43426 16.048 5.45018 15.117 5.6358C14.6517 5.72857 14.2297 5.86441 13.9135 6.06138C13.5965 6.25881 13.3811 6.5209 13.3417 6.86535L13.441 6.87673C13.4759 6.57237 13.6656 6.3336 13.9664 6.14626C14.2679 5.95845 14.6765 5.8256 15.1365 5.73387C16.0562 5.55052 17.1667 5.53428 17.9985 5.55907L18.0015 5.45912ZM13.3417 6.86553L13.3159 7.09798L13.4153 7.10899L13.4411 6.87655L13.3417 6.86553ZM13.3159 7.09799C13.2573 7.6277 13.174 8.37522 12.97 9.06855C12.7654 9.76378 12.4429 10.3922 11.9148 10.697L11.9648 10.7836C12.5277 10.4587 12.8596 9.79791 13.0659 9.09678C13.2728 8.39374 13.3568 7.63771 13.4153 7.10898L13.3159 7.09799ZM11.9145 10.6972C11.0402 11.2121 10.4512 12.1383 10.4512 13.199H10.5512C10.5512 12.1768 11.1187 11.2818 11.9652 10.7834L11.9145 10.6972ZM10.4512 13.199L10.45 23.8001L10.55 23.8001L10.5512 13.1991L10.4512 13.199ZM10.45 23.8001C10.45 24.8609 11.039 25.7883 11.9157 26.3031L11.9663 26.2169C11.1176 25.7184 10.55 24.8224 10.55 23.8001H10.45ZM11.916 26.3033C12.4435 26.6086 12.7657 27.237 12.9701 27.9321C13.174 28.6253 13.2573 29.3726 13.3159 29.9023L13.4153 29.8913C13.3568 29.3626 13.2728 28.6068 13.0661 27.9039C12.8599 27.2029 12.5283 26.5421 11.966 26.2167L11.916 26.3033ZM13.3159 29.9023L13.3417 30.1348L13.4411 30.1238L13.4153 29.8913L13.3159 29.9023ZM13.3417 30.135C13.3815 30.4794 13.597 30.7414 13.914 30.9388C14.2303 31.1357 14.6522 31.2714 15.1174 31.3641C16.0483 31.5496 17.1676 31.5655 18.0015 31.5412L17.9985 31.4412C17.1667 31.4655 16.0565 31.4492 15.137 31.266C14.677 31.1744 14.2684 31.0416 13.9668 30.8539C13.666 30.6666 13.4762 30.4279 13.441 30.1235L13.3417 30.135ZM17.9986 31.5412C18.8324 31.5649 19.952 31.5484 20.883 31.3627C21.3483 31.2698 21.7703 31.134 22.0865 30.9372C22.4035 30.7399 22.6189 30.478 22.6583 30.1338L22.559 30.1224C22.5241 30.4265 22.3345 30.665 22.0337 30.8523C21.7321 31.04 21.3235 31.1728 20.8635 31.2646C19.9438 31.4481 18.8333 31.4649 18.0014 31.4412L17.9986 31.5412ZM22.5586 30.1291L22.5587 30.1293L22.6586 30.1272L22.6586 30.1271L22.5586 30.1291ZM14.5101 7.05038C14.5361 7.02184 14.5834 6.99039 14.6545 6.95808C14.7247 6.92619 14.8143 6.89516 14.9211 6.86561C15.1347 6.80654 15.4132 6.75447 15.7345 6.71268C16.377 6.62912 17.1864 6.5872 17.9823 6.61083L17.9853 6.51087C17.1845 6.48709 16.3697 6.52923 15.7216 6.61352C15.3977 6.65565 15.1142 6.70846 14.8945 6.76923C14.7846 6.79961 14.6897 6.83226 14.6131 6.86704C14.5375 6.90141 14.4758 6.93964 14.4362 6.98303L14.5101 7.05038ZM17.9838 6.61085C17.9895 6.61085 17.9949 6.6103 17.9973 6.61007C18.0004 6.60979 18.0016 6.60972 18.0025 6.60972V6.50972C17.9965 6.50972 17.9912 6.51021 17.9882 6.51049C17.9864 6.51065 17.9855 6.51074 17.9847 6.5108C17.9839 6.51085 17.9837 6.51085 17.9838 6.51085V6.61085ZM18.0025 6.60972C18.0024 6.60972 18.0025 6.60969 18.0054 6.61C18.0078 6.61025 18.013 6.61085 18.0189 6.61085V6.51085C18.0191 6.51085 18.0189 6.51088 18.0161 6.51057C18.0137 6.51031 18.0085 6.50972 18.0025 6.50972V6.60972ZM18.0205 6.61082C18.8163 6.58664 19.6257 6.62857 20.2682 6.71226C20.5896 6.75412 20.868 6.80629 21.0816 6.86545C21.1884 6.89505 21.278 6.92611 21.3482 6.95803C21.4194 6.99037 21.4666 7.02184 21.4926 7.05038L21.5665 6.98303C21.527 6.93964 21.4653 6.9014 21.3896 6.867C21.3131 6.83219 21.2181 6.79951 21.1083 6.76908C20.8886 6.70822 20.6051 6.6553 20.2811 6.6131C19.633 6.52867 18.8182 6.48653 18.0174 6.51087L18.0205 6.61082ZM21.4799 7.02233L21.5021 7.21867L21.6015 7.20742L21.5793 7.01108L21.4799 7.02233ZM21.5021 7.21856C21.5979 8.08244 21.7354 9.32617 22.2518 10.341L22.3409 10.2957C21.8341 9.29974 21.6977 8.07459 21.6015 7.20753L21.5021 7.21856ZM22.2963 10.2684L13.7066 10.2684V10.3684L22.2963 10.3684V10.2684ZM13.7511 10.341C14.2675 9.32731 14.4049 8.08356 14.5008 7.22088L14.4014 7.20984C14.3052 8.07572 14.1687 9.30085 13.662 10.2957L13.7511 10.341ZM14.5008 7.22089L14.5229 7.02224L14.4235 7.01117L14.4014 7.20982L14.5008 7.22089ZM11.6423 23.8004L11.6423 13.1993H11.5423L11.5423 23.8004H11.6423ZM11.6423 13.1993C11.6423 12.59 11.9629 12.05 12.4521 11.7291L12.3972 11.6455C11.8821 11.9835 11.5423 12.5538 11.5423 13.1993H11.6423ZM12.4463 11.7323C12.4566 11.7273 12.4663 11.7211 12.4727 11.7169L12.4187 11.6328C12.4111 11.6377 12.4067 11.6404 12.4029 11.6422L12.4463 11.7323ZM12.4726 11.717C12.7645 11.5301 13.1134 11.4202 13.4899 11.4202V11.3202C13.0937 11.3202 12.7262 11.4359 12.4187 11.6327L12.4726 11.717ZM13.4899 11.4202L22.5115 11.4202V11.3202L13.4899 11.3202V11.4202ZM22.5115 11.4202C22.8879 11.4202 23.2379 11.5301 23.5297 11.718L23.5839 11.6339C23.2763 11.4359 22.9076 11.3202 22.5115 11.3202V11.4202ZM23.5318 11.7193C23.5333 11.7202 23.5343 11.7209 23.5387 11.7237C23.5422 11.726 23.5475 11.7293 23.5538 11.7323L23.5972 11.6422C23.5965 11.6419 23.5954 11.6412 23.5928 11.6396C23.5921 11.6391 23.5915 11.6387 23.5907 11.6382C23.59 11.6378 23.5891 11.6372 23.5882 11.6366C23.5865 11.6355 23.5843 11.6341 23.5818 11.6327L23.5318 11.7193ZM23.5481 11.7291C24.0373 12.05 24.3578 12.5889 24.3578 13.1993H24.4578C24.4578 12.5526 24.1181 11.9834 23.603 11.6455L23.5481 11.7291ZM24.3578 13.1993V23.8004H24.4578V13.1993H24.3578ZM24.3578 23.8004C24.3578 24.4107 24.0373 24.9496 23.5481 25.2706L23.603 25.3542C24.1181 25.0162 24.4578 24.447 24.4578 23.8004H24.3578ZM23.5538 25.2674C23.5477 25.2703 23.5423 25.2737 23.5394 25.2754C23.5359 25.2776 23.5348 25.2782 23.5339 25.2787L23.5773 25.3687C23.5835 25.3658 23.5888 25.3625 23.5917 25.3607C23.5953 25.3585 23.5964 25.3579 23.5972 25.3575L23.5538 25.2674ZM23.5287 25.2816C23.2368 25.4684 22.8868 25.5784 22.5103 25.5784V25.6784C22.9064 25.6784 23.2751 25.5626 23.5826 25.3658L23.5287 25.2816ZM22.5103 25.5784H13.4887V25.6784H22.5103V25.5784ZM13.4887 25.5784C13.1134 25.5784 12.7634 25.4684 12.4715 25.2816L12.4176 25.3658C12.725 25.5626 13.0937 25.6784 13.4887 25.6784V25.5784ZM12.4716 25.2816C12.4651 25.2775 12.4554 25.2712 12.4452 25.2662L12.4017 25.3563C12.4055 25.3581 12.4099 25.3609 12.4175 25.3658L12.4716 25.2816ZM12.4509 25.2695C11.9628 24.9485 11.6423 24.4096 11.6423 23.8004H11.5423C11.5423 24.4459 11.882 25.0151 12.396 25.3531L12.4509 25.2695ZM11.5476 23.8227L11.5476 23.8227L11.6371 23.778L11.6371 23.778L11.5476 23.8227ZM14.5229 29.9759L14.5006 29.7785L14.4012 29.7897L14.4235 29.9871L14.5229 29.9759ZM14.5006 29.7786C14.4048 28.9147 14.2674 27.6709 13.751 26.6584L13.6619 26.7038C14.1686 27.6974 14.3051 28.9225 14.4012 29.7896L14.5006 29.7786ZM13.7064 26.7311L18.0001 26.7299L18.0001 26.6299L13.7064 26.6311L13.7064 26.7311ZM18.0001 26.7299H22.2938V26.6299H18.0001V26.7299ZM22.2492 26.6572C21.7329 27.671 21.5943 28.9158 21.4996 29.7798L21.599 29.7907C21.694 28.9237 21.8316 27.6974 22.3384 26.7026L22.2492 26.6572ZM21.4996 29.7796L21.4774 29.976L21.5767 29.9872L21.599 29.7909L21.4996 29.7796ZM21.4901 29.9479C21.4641 29.9764 21.4168 30.0079 21.3457 30.0402C21.2755 30.0721 21.1859 30.1031 21.0791 30.1327C20.8655 30.1918 20.5871 30.2438 20.2657 30.2856C19.6233 30.3692 18.8138 30.4111 18.0179 30.3875L18.0149 30.4874C18.8158 30.5112 19.6305 30.4691 20.2786 30.3848C20.6026 30.3426 20.886 30.2898 21.1058 30.2291C21.2156 30.1987 21.3105 30.166 21.3871 30.1313C21.4627 30.0969 21.5245 30.0587 21.564 30.0153L21.4901 29.9479ZM18.0164 30.3874C18.0107 30.3874 18.0054 30.388 18.0028 30.3882C18.0013 30.3884 18.0004 30.3885 17.9996 30.3885C17.9989 30.3886 17.9987 30.3886 17.9989 30.3886V30.4886C18.0046 30.4886 18.0099 30.488 18.0124 30.4878C18.014 30.4876 18.0149 30.4875 18.0156 30.4875C18.0163 30.4874 18.0165 30.4874 18.0164 30.4874V30.3874ZM17.9989 30.3886C17.9989 30.3886 17.9989 30.3886 17.9956 30.3883C17.9926 30.388 17.9875 30.3874 17.9813 30.3874V30.4874C17.9821 30.4874 17.9829 30.4875 17.9855 30.4878C17.9877 30.488 17.9929 30.4886 17.9989 30.4886V30.3886ZM17.9798 30.3875C17.1845 30.4111 16.3757 30.3692 15.7336 30.2856C15.4125 30.2438 15.1343 30.1918 14.9208 30.1327C14.814 30.1031 14.7245 30.0721 14.6543 30.0402C14.5833 30.0079 14.536 29.9765 14.51 29.9479L14.4361 30.0153C14.4756 30.0587 14.5373 30.0969 14.6129 30.1312C14.6895 30.166 14.7844 30.1987 14.8941 30.2291C15.1137 30.2898 15.397 30.3426 15.7207 30.3848C16.3684 30.4691 17.1826 30.5112 17.9828 30.4874L17.9798 30.3875ZM14.493 30.0274L14.4931 30.0274L14.4532 29.9357L14.4531 29.9357L14.493 30.0274Z" fill="#A7A7A7"/>
</svg>
